nColumns=19
nRows=104
DataType=double
version=3
OpenSimVersion=4.1
endheader
time	ground_force_1_vx	ground_force_1_vy	ground_force_1_vz	ground_force_1_px	ground_force_1_py	ground_force_1_pz	ground_force_1_mx	ground_force_1_my	ground_force_1_mz	ground_force_2_vx	ground_force_2_vy	ground_force_2_vz	ground_force_2_px	ground_force_2_py	ground_force_2_pz	ground_force_2_mx	ground_force_2_my	ground_force_2_mz
0	13.8901	158.714	1.48398	0.131922	0.006	-0.161289	0	0.623488	0	0	0	0	0.741261	0	-0.223671	0	0	0
0.01	3.25205	197.257	1.05473	0.137067	0.006	-0.161042	0	0.661643	0	0	0	0	0.741261	0	-0.223671	0	0	0
0.02	-8.84577	241.834	0.262862	0.142327	0.006	-0.16075	0	0.697562	0	0	0	0	0.741261	0	-0.223671	0	0	0
0.03	-22.0936	291.882	-0.981343	0.14691	0.006	-0.160449	0	0.730922	0	0	0	0	0.741261	0	-0.223671	0	0	0
0.04	-36.0735	346.42	-2.76537	0.150971	0.006	-0.160133	0	0.761983	0	0	0	0	0.741261	0	-0.223671	0	0	0
0.05	-50.3211	404.066	-5.14862	0.154628	0.006	-0.159797	0	0.791563	0	0	0	0	0.741261	0	-0.223671	0	0	0
0.06	-64.3393	463.167	-8.13172	0.157957	0.006	-0.159444	0	0.821112	0	0	0	0	0.741261	0	-0.223671	0	0	0
0.07	-77.6034	521.912	-11.6334	0.161001	0.006	-0.159083	0	0.852452	0	0	0	0	0.741261	0	-0.223671	0	0	0
0.08	-89.5866	578.469	-15.4871	0.163779	0.006	-0.158723	0	0.887537	0	0	0	0	0.741261	0	-0.223671	0	0	0
0.09	-99.8003	631.126	-19.4721	0.166298	0.006	-0.158376	0	0.927452	0	0	0	0	0.741261	0	-0.223671	0	0	0
0.1	-107.857	678.423	-23.3694	0.168564	0.006	-0.158047	0	0.969675	0	0	0	0	0.741261	0	-0.223671	0	0	0
0.11	-113.517	719.227	-26.9981	0.170591	0.006	-0.157735	0	1.00735	0	0	0	0	0.741261	0	-0.223671	0	0	0
0.12	-116.683	752.764	-30.229	0.172394	0.006	-0.157436	0	1.03139	0	0	0	0	0.741261	0	-0.223671	0	0	0
0.13	-117.384	778.629	-32.9793	0.173996	0.006	-0.157141	0	1.03336	0	0	0	0	0.741261	0	-0.223671	0	0	0
0.14	-115.758	796.788	-35.2039	0.175423	0.006	-0.156842	0	1.00678	0	0	0	0	0.741261	0	-0.223671	0	0	0
0.15	-112.038	807.56	-36.8885	0.17671	0.006	-0.156529	0	0.947266	0	0	0	0	0.741261	0	-0.223671	0	0	0
0.16	-106.521	811.564	-38.0452	0.177893	0.006	-0.15619	0	0.852088	0	0	0	0	0.741261	0	-0.223671	0	0	0
0.17	-99.55	809.648	-38.7112	0.179018	0.006	-0.155814	0	0.719848	0	0	0	0	0.741261	0	-0.223671	0	0	0
0.18	-91.4852	802.811	-38.9472	0.180134	0.006	-0.155388	0	0.550245	0	0	0	0	0.741261	0	-0.223671	0	0	0
0.19	-82.6949	792.134	-38.8296	0.181302	0.006	-0.154901	0	0.344384	0	0	0	0	0.741261	0	-0.223671	0	0	0
0.2	-73.5408	778.731	-38.44	0.182587	0.006	-0.154339	0	0.105208	0	0	0	0	0.741261	0	-0.223671	0	0	0
0.21	-64.3686	763.706	-37.8544	0.184059	0.006	-0.153693	0	-0.16252	0	0	0	0	0.741261	0	-0.223671	0	0	0
0.22	-55.4896	748.103	-37.1373	0.185787	0.006	-0.152955	0	-0.452798	0	0	0	0	0.741261	0	-0.223671	0	0	0
0.23	-47.1572	732.853	-36.3402	0.187835	0.006	-0.152123	0	-0.759245	0	0	0	0	0.741261	0	-0.223671	0	0	0
0.24	-39.5478	718.723	-35.5032	0.190248	0.006	-0.151198	0	-1.07597	0	0	0	0	0.741261	0	-0.223671	0	0	0
0.25	-32.7577	706.28	-34.6588	0.193056	0.006	-0.150188	0	-1.39835	0	0	0	0	0.741261	0	-0.223671	0	0	0
0.26	-26.8136	695.876	-33.8384	0.196268	0.006	-0.149102	0	-1.72321	0	0	0	0	0.741261	0	-0.223671	0	0	0
0.27	-21.6922	687.661	-33.0797	0.199875	0.006	-0.147954	0	-2.04868	0	0	0	0	0.741261	0	-0.223671	0	0	0
0.28	-17.3386	681.626	-32.4292	0.203858	0.006	-0.146758	0	-2.37353	0	0	0	0	0.741261	0	-0.223671	0	0	0
0.29	-13.6767	677.66	-31.9392	0.208185	0.006	-0.14553	0	-2.69656	0	0	0	0	0.741261	0	-0.223671	0	0	0
0.3	-10.6117	675.616	-31.6614	0.212818	0.006	-0.144288	0	-3.01602	0	0	0	0	0.741261	0	-0.223671	0	0	0
0.31	-8.02988	675.351	-31.6376	0.217711	0.006	-0.143053	0	-3.32932	0	0	0	0	0.741261	0	-0.223671	0	0	0
0.32	-5.80363	676.755	-31.8919	0.222813	0.006	-0.141848	0	-3.63295	0	0	0	0	0.741261	0	-0.223671	0	0	0
0.33	-3.79969	679.763	-32.426	0.228073	0.006	-0.140701	0	-3.92264	0	0	0	0	0.741261	0	-0.223671	0	0	0
0.34	-1.88815	684.347	-33.2199	0.233438	0.006	-0.139641	0	-4.19375	0	0	0	0	0.741261	0	-0.223671	0	0	0
0.35	0.0486336	690.502	-34.2339	0.238864	0.006	-0.138695	0	-4.44169	0	0	0	0	0.741261	0	-0.223671	0	0	0
0.36	2.11215	698.233	-35.4145	0.244312	0.006	-0.137894	0	-4.66231	0	0	0	0	0.741261	0	-0.223671	0	0	0
0.37	4.39021	707.538	-36.6988	0.249751	0.006	-0.137261	0	-4.85219	0	0	0	0	0.741261	0	-0.223671	0	0	0
0.38	6.95826	718.403	-38.0195	0.255156	0.006	-0.136817	0	-5.00893	0	0	0	0	0.741261	0	-0.223671	0	0	0
0.39	9.8793	730.788	-39.3084	0.260506	0.006	-0.136579	0	-5.13157	0	0	0	0	0.741261	0	-0.223671	0	0	0
0.4	13.2033	744.61	-40.5	0.265787	0.006	-0.136552	0	-5.2205	0	0	0	0	0.741261	0	-0.223671	0	0	0
0.41	16.9669	759.718	-41.5336	0.270983	0.006	-0.13674	0	-5.27722	0	0	0	0	0.741261	0	-0.223671	0	0	0
0.42	21.1941	775.873	-42.3549	0.276083	0.006	-0.137135	0	-5.3039	0	0	0	0	0.741261	0	-0.223671	0	0	0
0.43	25.8964	792.734	-42.9169	0.281078	0.006	-0.137726	0	-5.30291	0	0	0	0	0.741261	0	-0.223671	0	0	0
0.44	31.0728	809.842	-43.1771	0.28596	0.006	-0.138497	0	-5.27668	0	0	0	0	0.741261	0	-0.223671	0	0	0
0.45	36.7106	826.617	-43.0946	0.290724	0.006	-0.139427	0	-5.22765	0	0	0	0	0.741261	0	-0.223671	0	0	0
0.46	42.7846	842.347	-42.6285	0.295364	0.006	-0.140493	0	-5.15834	0	0	0	0	0.741261	0	-0.223671	0	0	0
0.47	49.2548	856.198	-41.7392	0.29988	0.006	-0.141673	0	-5.07167	0	0	0	0	0.741261	0	-0.223671	0	0	0
0.48	56.0613	867.233	-40.3921	0.304272	0.006	-0.142942	0	-4.97125	0	0	0	0	0.741261	0	-0.223671	0	0	0
0.49	63.1165	874.462	-38.5611	0.308541	0.006	-0.14428	0	-4.86146	0	0	0	0	0.741261	0	-0.223671	0	0	0
0.5	70.2944	876.902	-36.2341	0.312692	0.006	-0.145668	0	-4.74721	0	0	0	0	0.741261	0	-0.223671	0	0	0
0.51	77.4245	873.635	-33.418	0.316728	0.006	-0.14709	0	-4.63327	0	6.87356	24.8436	-4.22528	0.748577	0.006	-0.227111	0	0.760391	0
0.52	84.2867	863.859	-30.1434	0.320658	0.006	-0.148534	0	-4.52352	0	5.75925	47.5328	-4.66601	0.790601	0.006	-0.246379	0	0.7745	0
0.53	90.6108	846.932	-26.4684	0.324493	0.006	-0.149989	0	-4.41995	0	3.60042	76.1575	-5.08533	0.809565	0.006	-0.254476	0	0.795084	0
0.54	96.0812	822.413	-22.4813	0.328251	0.006	-0.151445	0	-4.3219	0	0.1142	111.091	-5.443	0.820764	0.006	-0.258839	0	0.824764	0
0.55	100.357	790.109	-18.3014	0.331956	0.006	-0.152896	0	-4.2258	0	-5.00538	152.401	-5.68465	0.828485	0.006	-0.261534	0	0.864992	0
0.56	103.107	750.131	-14.0774	0.335637	0.006	-0.154334	0	-4.12512	0	-12.0301	199.803	-5.73785	0.834403	0.006	-0.263362	0	0.916901	0
0.57	104.045	702.942	-9.98277	0.339324	0.006	-0.155753	0	-4.01097	0	-21.021	252.705	-5.50848	0.839296	0.006	-0.264701	0	0.981467	0
0.58	102.974	649.392	-6.20509	0.343054	0.006	-0.157144	0	-3.87303	0	-31.7564	310.225	-4.87418	0.843559	0.006	-0.265751	0	1.0579	0
0.59	99.8181	590.702	-2.92589	0.346862	0.006	-0.158501	0	-3.70138	0	-43.834	371.169	-3.70243	0.847407	0.006	-0.266624	0	1.14203	0
0.6	94.6406	528.411	-0.290106	0.350787	0.006	-0.159815	0	-3.48899	0	-56.7745	434.033	-1.88793	0.850959	0.006	-0.267385	0	1.22706	0
0.61	87.6497	464.264	1.62252	0.354877	0.006	-0.161079	0	-3.23385	0	-70.0363	497.1	0.616139	0.854278	0.006	-0.268068	0	1.30513	0
0.62	79.1823	400.079	2.81251	0.359197	0.006	-0.162293	0	-2.93952	0	-83.0222	558.549	3.77566	0.857388	0.006	-0.268691	0	1.36834	0
0.63	69.6666	337.612	3.35866	0.363838	0.006	-0.163462	0	-2.61457	0	-95.1263	616.595	7.4651	0.86029	0.006	-0.269258	0	1.40881	0
0.64	59.5816	278.443	3.39834	0.368941	0.006	-0.164607	0	-2.2711	0	-105.776	669.6	11.4772	0.862966	0.006	-0.26977	0	1.42003	0
0.65	49.4262	223.858	3.09328	0.374717	0.006	-0.165761	0	-1.92259	0	-114.462	716.166	15.5634	0.865396	0.006	-0.270226	0	1.39985	0
0.66	39.669	174.77	2.59555	0.381504	0.006	-0.166978	0	-1.58173	0	-120.798	755.242	19.4891	0.867562	0.006	-0.270626	0	1.35221	0
0.67	30.6885	131.712	2.02838	0.389887	0.006	-0.16834	0	-1.2591	0	-124.575	786.194	23.0752	0.869462	0.006	-0.270973	0	1.28658	0
0.68	22.7372	94.8708	1.47942	0.400986	0.006	-0.16999	0	-0.962905	0	-125.76	808.812	26.201	0.871103	0.006	-0.271269	0	1.21421	0
0.69	15.9439	64.1501	1.00056	0.417252	0.006	-0.172214	0	-0.699385	0	-124.461	823.26	28.7981	0.872502	0.006	-0.27152	0	1.1453	0
0.7	10.3333	39.2429	0.613328	0.445231	0.006	-0.175755	0	-0.473287	0	-120.9	830.025	30.8487	0.873679	0.006	-0.271727	0	1.08858	0
0.71	0	0	0	0.502504	0	-0.182064	0	0	0	-115.384	829.863	32.3824	0.874659	0.006	-0.271894	0	1.05149	0
0.72	0	0	0	0.529934	0	-0.180482	0	0	0	-108.285	823.729	33.4639	0.875477	0.006	-0.272023	0	1.04	0
0.73	0	0	0	0.557363	0	-0.1789	0	0	0	-100.01	812.715	34.1752	0.876171	0.006	-0.272115	0	1.05859	0
0.74	0	0	0	0.584793	0	-0.177318	0	0	0	-90.982	797.996	34.5985	0.876784	0.006	-0.272169	0	1.11007	0
0.75	0	0	0	0.612223	0	-0.175737	0	0	0	-81.6021	780.776	34.7993	0.877365	0.006	-0.272181	0	1.19508	0
0.76	0	0	0	0.639652	0	-0.174155	0	0	0	-72.229	762.23	34.8151	0.877967	0.006	-0.272144	0	1.31215	0
0.77	0	0	0	0.667082	0	-0.172573	0	0	0	-63.1566	743.447	34.6554	0.878642	0.006	-0.27205	0	1.45847	0
0.78	0	0	0	0.694512	0	-0.170992	0	0	0	-54.6002	725.374	34.3101	0.87944	0.006	-0.271889	0	1.63088	0
0.79	0	0	0	0.721941	0	-0.16941	0	0	0	-46.6915	708.768	33.7627	0.880408	0.006	-0.271653	0	1.82671	0
0.8	0	0	0	0.749371	0	-0.167828	0	0	0	-39.487	694.168	33.0055	0.881586	0.006	-0.271338	0	2.04403	0
0.81	0	0	0	0.776801	0	-0.166247	0	0	0	-32.9893	681.899	32.0532	0.883011	0.006	-0.270943	0	2.28158	0
0.82	0	0	0	0.80423	0	-0.164665	0	0	0	-27.1694	672.098	30.9475	0.884717	0.006	-0.270477	0	2.53839	0
0.83	0	0	0	0.83166	0	-0.163083	0	0	0	-21.9825	664.767	29.7535	0.886735	0.006	-0.269951	0	2.81307	0
0.84	0	0	0	0.85909	0	-0.161502	0	0	0	-17.379	659.824	28.5493	0.889094	0.006	-0.269383	0	3.10322	0
0.85	0	0	0	0.886519	0	-0.15992	0	0	0	-13.3088	657.151	27.416	0.891821	0.006	-0.268791	0	3.4051	0
0.86	0	0	0	0.913949	0	-0.158338	0	0	0	-9.71823	656.617	26.4298	0.894937	0.006	-0.268194	0	3.71395	0
0.87	0	0	0	0.941378	0	-0.156757	0	0	0	-6.54697	658.094	25.6558	0.898458	0.006	-0.26761	0	4.02453	0
0.88	0	0	0	0.968808	0	-0.155175	0	0	0	-3.72864	661.469	25.1451	0.902394	0.006	-0.267053	0	4.33165	0
0.89	0	0	0	0.996238	0	-0.153593	0	0	0	-1.19301	666.654	24.9317	0.906749	0.006	-0.266536	0	4.6305	0
0.9	0	0	0	1.02367	0	-0.152012	0	0	0	1.13308	673.585	25.031	0.911523	0.006	-0.266066	0	4.91656	0
0.91	0	0	0	1.0511	0	-0.15043	0	0	0	3.32504	682.223	25.4408	0.916705	0.006	-0.265645	0	5.18572	0
0.92	0	0	0	1.07853	0	-0.148848	0	0	0	5.46047	692.543	26.1439	0.922273	0.006	-0.265272	0	5.43427	0
0.93	0	0	0	1.10596	0	-0.147267	0	0	0	7.61838	704.521	27.1123	0.928194	0.006	-0.264944	0	5.65916	0
0.94	0	0	0	1.13339	0	-0.145685	0	0	0	9.8767	718.118	28.3105	0.934423	0.006	-0.264654	0	5.858	0
0.95	0	0	0	1.16082	0	-0.144103	0	0	0	12.3108	733.256	29.6969	0.940907	0.006	-0.264394	0	6.02905	0
0.96	0	0	0	1.18824	0	-0.142522	0	0	0	14.9933	749.799	31.2249	0.94758	0.006	-0.264154	0	6.17101	0
0.97	0	0	0	1.21567	0	-0.14094	0	0	0	17.994	767.543	32.8434	0.954375	0.006	-0.263923	0	6.28281	0
0.98	0	0	0	1.2431	0	-0.139358	0	0	0	21.3782	786.206	34.4976	0.961216	0.006	-0.263689	0	6.36357	0
0.99	0	0	0	1.27053	0	-0.137776	0	0	0	25.203	805.42	36.1282	0.968031	0.006	-0.263441	0	6.4128	0
1	0	0	0	1.29796	0	-0.136195	0	0	0	29.5118	824.728	37.6734	0.974751	0.006	-0.263171	0	6.43037	0
1.01	0	0	0	1.32539	0	-0.134613	0	0	0	34.3293	843.573	39.0698	0.981314	0.006	-0.262869	0	6.41675	0
1.02	0	0	0	1.35282	0	-0.133031	0	0	0	39.6564	861.295	40.2534	0.987667	0.006	-0.262529	0	6.37321	0
1.03	0	0	0	1.38025	0	-0.13145	0	0	0	45.4674	877.129	41.1613	0.993771	0.006	-0.262147	0	6.30189	0
